<?xml version="1.0" encoding="UTF-8"?>
<svg id="Layer_2" data-name="Layer 2" xmlns="http://www.w3.org/2000/svg" viewBox="0 0 452 289.33">
  <defs>
    <style>
      .cls-1 {
        fill: none;
      }
    </style>
  </defs>
  <g id="Layer_1-2" data-name="Layer 1">
    <g>
      <polygon points="338.48 207.85 113.52 207.85 45.92 95.85 14.08 95.85 14.08 80.85 54.39 80.85 121.99 192.85 330.01 192.85 397.61 80.85 437.92 80.85 437.92 95.85 406.07 95.85 338.48 207.85"/>
      <g>
        <rect x="74.04" y="18.35" width="6" height="10"/>
        <path d="M360.29,28.35h-11.68v-10h11.68v10ZM336.93,28.35h-11.68v-10h11.68v10ZM313.58,28.35h-11.68v-10h11.68v10ZM290.22,28.35h-11.68v-10h11.68v10ZM266.87,28.35h-11.68v-10h11.68v10ZM243.52,28.35h-11.68v-10h11.68v10ZM220.16,28.35h-11.68v-10h11.68v10ZM196.81,28.35h-11.68v-10h11.68v10ZM173.45,28.35h-11.68v-10h11.68v10ZM150.1,28.35h-11.68v-10h11.68v10ZM126.74,28.35h-11.68v-10h11.68v10ZM103.39,28.35h-11.68v-10h11.68v10Z"/>
        <rect x="371.96" y="18.35" width="6" height="10"/>
        <polygon points="85.27 38.16 78.98 23.35 85.27 8.53 50.16 23.35 85.27 38.16"/>
        <polygon points="366.73 38.16 373.02 23.35 366.73 8.53 401.84 23.35 366.73 38.16"/>
      </g>
    </g>
    <rect class="cls-1" width="452" height="289.33"/>
  </g>
</svg>