<?xml version="1.0" encoding="UTF-8"?>
<svg id="Layer_2" data-name="Layer 2" xmlns="http://www.w3.org/2000/svg" viewBox="0 0 452 289.33">
  <defs>
    <style>
      .cls-1 {
        fill: none;
      }
    </style>
  </defs>
  <g id="Layer_1-2" data-name="Layer 1">
    <g>
      <polygon points="338.48 208.65 113.52 208.65 45.92 96.65 14.08 96.65 14.08 81.65 54.39 81.65 121.99 193.65 330.01 193.65 397.61 81.65 437.92 81.65 437.92 96.65 406.07 96.65 338.48 208.65"/>
      <g>
        <rect x="141.63" y="256.82" width="6" height="10"/>
        <path d="M292.31,266.82h-12.06v-10h12.06v10ZM268.2,266.82h-12.06v-10h12.06v10ZM244.08,266.82h-12.06v-10h12.06v10ZM219.97,266.82h-12.06v-10h12.06v10ZM195.86,266.82h-12.06v-10h12.06v10ZM171.74,266.82h-12.06v-10h12.06v10Z"/>
        <rect x="304.37" y="256.82" width="6" height="10"/>
        <polygon points="152.87 276.63 146.57 261.82 152.87 247.01 117.75 261.82 152.87 276.63"/>
        <polygon points="299.13 276.63 305.43 261.82 299.13 247.01 334.25 261.82 299.13 276.63"/>
      </g>
    </g>
    <rect class="cls-1" width="452" height="289.33"/>
  </g>
</svg>