<?xml version="1.0" encoding="UTF-8"?>
<svg id="Layer_2" data-name="Layer 2" xmlns="http://www.w3.org/2000/svg" viewBox="0 0 452 289.33">
  <defs>
    <style>
      .cls-1 {
        fill: none;
      }
    </style>
  </defs>
  <g id="Layer_1-2" data-name="Layer 1">
    <g>
      <path d="M256.87,74.18v21.02h48.11c4.23,0,11.81,7.56,12.16,12.09l23.02,129.04c.43,10.85-7.75,17.88-18.17,18.19H127.87c-11.25-1.17-17.8-11.15-15.64-22.17l22.77-126.01c.42-4.12,7.74-11.14,11.5-11.14h48.11v-21.02h-19.81c-1.86,0-8.05-2.73-9.86-3.88-17.21-11.03-10.84-38.74,9.83-40.62,32.67,1.91,67.98-2.42,100.33,0,18.94,1.41,28.29,23.1,15.35,37.25-2.41,2.63-10.42,7.26-13.76,7.26h-19.81ZM174.18,40.41c-12.88,3.31-11.84,19.91.67,23.2l101.04.07c13.19-2.66,13.8-19.99.74-23.42l-102.44.14ZM247.17,74.18h-42.05v21.02h42.05v-21.02ZM149.09,105.07l-3.47,2.19-23.69,127.52c-1.11,5.17,2.07,10.06,7.55,10.04h191.71c4.02,0,7.63-2.02,8.41-6.15l-23.06-130.48c-1.47-2.14-3.67-3.48-6.37-3.33l-151.07.21Z"/>
      <path d="M220.32,118.89c78.23-7.04,82.27,112.17,6.18,112.99-70.87.76-76.94-106.63-6.18-112.99ZM225.16,128.57c-62.2,1.17-59.6,97.14,4.66,92.8,57.69-3.9,55.4-93.93-4.66-92.8Z"/>
      <path d="M231.12,163.8c.12.19,2.78,1.1,3.94,2.12,4.55,3.99,5.66,10.09,3.36,15.55-6.47,15.37-30.53,8.47-25.65-10.29,1.34-5.15,7.74-6.73,8.38-8.6,1.46-4.28-1.18-14.82.27-19.14.93-2.79,7.34-3.35,8.96.48,1.81,4.31-.51,17.91.74,19.88ZM225.1,172.11c-4.3,1.09-3.42,7.81.62,7.97,6.07.24,3.61-9.05-.62-7.97Z"/>
    </g>
    <rect class="cls-1" width="452" height="289.33"/>
  </g>
</svg>