<?xml version="1.0" encoding="UTF-8"?>
<svg id="Layer_2" data-name="Layer 2" xmlns="http://www.w3.org/2000/svg" viewBox="0 0 452 289.33">
  <defs>
    <style>
      .cls-1 {
        fill: none;
      }
    </style>
  </defs>
  <g id="Layer_1-2" data-name="Layer 1">
    <g>
      <polygon points="338.48 207.85 113.52 207.85 45.92 95.85 14.08 95.85 14.08 80.85 54.39 80.85 121.99 192.85 330.01 192.85 397.61 80.85 437.92 80.85 437.92 95.85 406.07 95.85 338.48 207.85"/>
      <g>
        <rect x="37.95" y="18.35" width="6" height="10"/>
        <path d="M396.3,28.35h-11.75v-10h11.75v10ZM372.81,28.35h-11.75v-10h11.75v10ZM349.32,28.35h-11.75v-10h11.75v10ZM325.83,28.35h-11.75v-10h11.75v10ZM302.34,28.35h-11.75v-10h11.75v10ZM278.85,28.35h-11.75v-10h11.75v10ZM255.36,28.35h-11.75v-10h11.75v10ZM231.87,28.35h-11.75v-10h11.75v10ZM208.38,28.35h-11.75v-10h11.75v10ZM184.89,28.35h-11.75v-10h11.75v10ZM161.4,28.35h-11.75v-10h11.75v10ZM137.91,28.35h-11.75v-10h11.75v10ZM114.42,28.35h-11.75v-10h11.75v10ZM90.93,28.35h-11.75v-10h11.75v10ZM67.44,28.35h-11.75v-10h11.75v10Z"/>
        <rect x="408.05" y="18.35" width="6" height="10"/>
        <polygon points="49.19 38.16 42.9 23.35 49.19 8.53 14.08 23.35 49.19 38.16"/>
        <polygon points="402.81 38.16 409.1 23.35 402.81 8.53 437.92 23.35 402.81 38.16"/>
      </g>
    </g>
    <rect class="cls-1" width="452" height="289.33"/>
  </g>
</svg>