<?xml version="1.0" encoding="UTF-8"?>
<svg id="Layer_1" data-name="Layer 1" xmlns="http://www.w3.org/2000/svg" viewBox="0 0 1246 181.5">
  <defs>
    <style>
      .cls-1 {
        fill: #4fb7b2;
      }

      .cls-2 {
        fill: #1d4443;
      }
    </style>
  </defs>
  <path class="cls-2" d="M218.08,88.44l-59.24,59.25h-30.49l74.46-74.46c11.82-11.82,11.82-31.04,0-42.86-11.82-11.76-30.98-11.76-42.8,0l-47.98,47.98-38.86,38.92c-11.82,11.82-30.98,11.82-42.8,0-11.82-11.82-11.82-30.98,0-42.8L104.82,0h30.48L45.64,89.73c-2.22,2.22-2.59,4.8-2.59,6.16s.37,3.94,2.59,6.16c2.22,2.22,4.8,2.53,6.16,2.53s3.94-.31,6.16-2.53L130.87,29.07l13.86-13.92c10.1-10.1,23.4-15.15,36.64-15.15s26.54,5.05,36.7,15.15c20.2,20.2,20.2,53.09,0,73.29Z"/>
  <path class="cls-1" d="M202.8,73.23l-74.46,74.46h-30.49l89.73-89.73c3.39-3.39,3.39-8.93-.06-12.32-3.39-3.39-8.93-3.39-12.32,0l-82.03,82.16-4.74,4.74c-10.1,10.1-23.4,15.15-36.64,15.15s-26.54-5.05-36.64-15.15c-20.2-20.2-20.2-53.09,0-73.29L74.4,0h30.42L30.36,74.46c-11.82,11.82-11.82,30.98,0,42.8,11.82,11.82,30.98,11.82,42.8,0l38.86-38.92,47.98-47.98c11.82-11.76,30.98-11.76,42.8,0,11.82,11.82,11.82,31.04,0,42.86Z"/>
  <path class="cls-2" d="M262.38,114.66h30.24c1.19,8.75,8.16,13.73,18.7,13.73,9.55,0,15.32-3.78,15.32-9.75,0-5.57-3.38-8.95-21.69-12.14-27.45-4.38-39.59-13.13-39.59-31.63,0-19.7,18.1-32.63,44.76-32.63s44.17,12.53,45.76,33.82h-29.64c-.8-7.96-7.16-12.14-16.51-12.14-8.75,0-13.93,3.58-13.93,9.15s4.18,8.55,21.68,11.14c29.05,4.18,40.39,13.93,40.39,31.43,0,20.69-17.91,34.62-46.75,34.62s-47.15-13.33-48.74-35.61Z"/>
  <path class="cls-2" d="M362.65,119.04c0-17.71,11.34-28.25,31.04-30.64l35.81-4.78v-6.56c0-7.56-4.97-12.14-15.32-12.14s-16.31,4.18-17.11,11.94h-30.24c1.19-21.88,19.89-34.62,47.95-34.62s45.76,13.53,45.76,35.01v70.43h-29.84l-.99-15.32c-6.17,11.14-17.71,17.9-33.22,17.9-19.89,0-33.82-13.13-33.82-31.23ZM429.5,110.28v-7.36l-24.27,3.18c-7.96.99-11.74,4.78-11.74,10.94,0,6.76,4.97,10.74,14.13,10.74,11.94,0,21.88-6.96,21.88-17.51Z"/>
  <rect class="cls-2" x="472.87" y=".46" width="33.03" height="32.03"/>
  <rect class="cls-2" x="473.47" y="44.83" width="31.83" height="102.86"/>
  <path class="cls-2" d="M544.5,119.04c0-17.71,11.34-28.25,31.04-30.64l35.81-4.78v-6.56c0-7.56-4.97-12.14-15.32-12.14s-16.31,4.18-17.11,11.94h-30.24c1.19-21.88,19.89-34.62,47.95-34.62s45.76,13.53,45.76,35.01v70.43h-29.84l-.99-15.32c-6.17,11.14-17.71,17.9-33.22,17.9-19.89,0-33.82-13.13-33.82-31.23ZM611.34,110.28v-7.36l-24.27,3.18c-7.96.99-11.74,4.78-11.74,10.94,0,6.76,4.97,10.74,14.13,10.74,11.94,0,21.88-6.96,21.88-17.51Z"/>
  <path class="cls-2" d="M687.14.46v147.22h-31.83V.46h31.83Z"/>
  <path class="cls-2" d="M700.08,110.28V44.83h32.03v59.29c0,13.73,4.97,20.69,15.72,20.69s18.5-7.96,18.5-24.07v-55.9h32.03v102.86h-30.64l-.8-14.72c-5.57,8.75-16.11,17.31-31.04,17.31-24.67,0-35.81-15.52-35.81-39.99Z"/>
  <path class="cls-2" d="M812.09,181.5V44.83h29.64l.99,16.31c4.38-9.55,15.52-18.9,31.83-18.9,27.85,0,44.56,22.68,44.56,52.92v1.99c0,30.44-16.71,53.12-44.36,53.12-14.32,0-25.27-7.16-30.64-16.71v47.95h-32.03ZM886.89,97.15v-1.99c0-19.1-7.16-29.05-21.88-29.05s-21.88,9.95-21.88,29.05v1.99c0,18.9,7.16,29.05,21.88,29.05s21.88-10.15,21.88-29.05Z"/>
  <path class="cls-2" d="M924.5,119.04c0-17.71,11.34-28.25,31.04-30.64l35.81-4.78v-6.56c0-7.56-4.97-12.14-15.32-12.14s-16.31,4.18-17.11,11.94h-30.24c1.19-21.88,19.89-34.62,47.95-34.62s45.76,13.53,45.76,35.01v70.43h-29.84l-.99-15.32c-6.17,11.14-17.71,17.9-33.22,17.9-19.89,0-33.82-13.13-33.82-31.23ZM991.34,110.28v-7.36l-24.27,3.18c-7.96.99-11.74,4.78-11.74,10.94,0,6.76,4.97,10.74,14.13,10.74,11.94,0,21.88-6.96,21.88-17.51Z"/>
  <path class="cls-2" d="M1031.93,97.15v-1.99c0-31.83,20.09-52.92,52.52-52.92,27.65,0,46.16,15.92,49.14,42.57h-31.23c-1.39-10.94-6.37-18.3-18.3-18.3-13.73,0-19.89,10.35-19.89,28.65v1.99c0,18.7,6.17,28.85,19.89,28.85,11.94,0,16.91-7.36,18.3-18.1h31.23c-2.98,26.46-21.49,42.37-49.14,42.37-32.43,0-52.52-21.09-52.52-53.12Z"/>
  <path class="cls-2" d="M1174.38,113.07v34.62h-31.83V.46h31.83v79.78l34.22-35.41h35.81l-39.19,39.99,40.78,62.87h-35.01l-27.65-43.57-8.95,8.95Z"/>
</svg>